Coordinates
version=1
nRows=19
nColumns=36
inDegrees=yes

Units are S.I. units (second, meters, Newtons, ...)
If the header above contains a line with 'inDegrees', this indicates whether rotational values are in degrees (yes) or radians (no).

endheader
time	pelvis_tilt	pelvis_list	pelvis_rotation	pelvis_tx	pelvis_ty	pelvis_tz	hip_flexion_r	hip_adduction_r	hip_rotation_r	knee_angle_r	knee_angle_r_beta	ankle_angle_r	subtalar_angle_r	mtp_angle_r	hip_flexion_l	hip_adduction_l	hip_rotation_l	knee_angle_l	knee_angle_l_beta	ankle_angle_l	subtalar_angle_l	mtp_angle_l	lumbar_extension	lumbar_bending	lumbar_rotation	arm_flex_r	arm_add_r	arm_rot_r	elbow_flex_r	pro_sup_r	arm_flex_l	arm_add_l	arm_rot_l	elbow_flex_l	pro_sup_l
      0.00000000	     -0.99588402	      3.30357234	     90.86048411	     -0.24067013	      0.93173402	      1.08280565	     23.50505609	     -0.14546067	    -11.88166406	     19.49532295	      0.34025757	     -3.75298397	     -2.14247501	     -7.52894317	    -14.51988072	      1.04588468	    -10.21088476	     27.19928651	      0.47471710	      3.99310511	      1.86619541	     -7.52894317	    -15.10901773	      0.03413753	     -4.25412639	     -6.13883788	     -4.73887210	    -32.37119574	     50.46865461	    105.30821928	     21.21609506	     -9.02128837	    -14.83841966	     47.63508521	     89.92528901
      0.01000000	     -0.46579929	      3.73139810	     90.33853095	     -0.23829223	      0.93259103	      1.06854222	     22.87182436	      0.79780045	    -10.42697277	     20.63508677	      0.36015021	     -4.91205893	     -4.14600949	     -7.52351174	    -14.41893422	      0.18473265	    -10.50811105	     29.73241951	      0.51892861	      0.79477400	      0.79859334	     -7.52351174	    -15.39158866	      0.55584752	     -3.53106437	     -5.90548531	     -4.86866554	    -32.27834601	     49.77731010	    103.67449776	     20.61382987	     -8.61015145	    -15.31767731	     47.98462251	     87.17350387
      0.02000000	      0.19624518	      4.23400269	     89.92765461	     -0.23572659	      0.93384368	      1.05435597	     22.07503020	      1.89658626	     -9.13285208	     21.77254871	      0.38000266	     -5.40643557	     -6.31965042	     -7.51873312	    -14.12482876	     -0.90367656	    -10.68469202	     32.61660578	      0.56926716	     -2.89951528	     -0.49009401	     -7.51873312	    -15.73618725	      1.17958667	     -2.97128274	     -5.53840326	     -5.00665218	    -32.09886874	     48.89314939	    103.62724611	     19.90228745	     -8.43700887	    -15.55305233	     48.21803226	     85.59028800
      0.03000000	      0.71208525	      4.70727712	     89.67146675	     -0.23338005	      0.93521933	      1.04012825	     21.22120536	      2.75777524	     -8.21784674	     22.85657625	      0.39892251	     -4.77369038	     -8.06228756	     -7.51426068	    -13.53817335	     -1.79871171	    -10.48964486	     35.60983146	      0.62150880	     -7.66645137	     -2.22108831	     -7.51426068	    -16.05719975	      1.66623522	     -2.56523676	     -5.11845427	     -5.00913656	    -32.18721670	     48.00200185	    104.90414395	     19.13421549	     -8.24271216	    -16.10186541	     48.43315479	     85.94287678
      0.04000000	      1.26833808	      5.05682468	     89.48494391	     -0.23125759	      0.93631401	      1.02629384	     20.45177719	      3.62630681	     -7.55234519	     23.97536593	      0.41844907	     -3.65378968	     -9.04431692	     -7.50833167	    -12.60350323	     -2.79757401	    -10.18384654	     38.76350713	      0.67655083	    -12.68459158	     -3.55619620	     -7.50833167	    -16.28720068	      2.22196891	     -2.24237066	     -4.71576632	     -4.97920998	    -32.37646128	     47.39549786	    106.96058335	     18.42744513	     -7.96643297	    -17.22293471	     48.49469658	     89.90200996
      0.05000000	      1.89207024	      5.39045724	     89.44983378	     -0.22973164	      0.93748686	      1.01277271	     19.52472710	      4.45853353	     -7.27936379	     24.71405158	      0.43134157	     -2.44018856	     -9.14875698	     -7.50771997	    -11.41344876	     -3.84357526	     -9.56800066	     42.03576070	      0.73366243	    -16.86083870	     -3.97551755	     -7.50771997	    -16.51874457	      2.90314735	     -1.94214310	     -4.48812125	     -5.16184988	    -31.97678372	     46.98707091	    105.69196589	     17.77983654	     -7.71725607	    -17.47796973	     48.42659963	     89.24475924
      0.06000000	      2.40820807	      5.50568261	     89.45853300	     -0.22893569	      0.93841591	      0.99982753	     18.80755131	      5.01353404	     -7.35074320	     25.30975263	      0.44173852	     -1.42584550	     -9.34295383	     -7.50719830	     -9.88974391	     -4.60011700	     -8.57125251	     45.19574038	      0.78881448	    -20.18088600	     -4.30730199	     -7.50719830	    -16.60118767	      3.52800145	     -1.68506740	     -4.25920798	     -5.43674552	    -31.52888858	     46.74520697	    104.84565481	     17.15623705	     -7.35168722	    -17.83469140	     48.30677812	     88.68509282
      0.07000000	      2.70865310	      5.70708315	     89.35590779	     -0.22785638	      0.93964157	      0.98694176	     17.92952778	      5.41977934	     -7.18557346	     25.83915638	      0.45097835	     -0.11769375	     -9.22176831	     -7.50687203	     -8.41677300	     -5.13920282	     -8.00188787	     48.21534114	      0.84151645	    -23.41848839	     -4.38952377	     -7.50687203	    -16.77568213	      3.84737071	     -1.23995264	     -4.07220331	     -5.61950761	    -31.23517662	     46.53913297	    103.87755946	     16.65977484	     -7.03859783	    -17.97297490	     48.01932874	     88.06601104
      0.08000000	      3.23505890	      5.58920207	     89.64561771	     -0.22764653	      0.94070827	      0.97428272	     17.16950838	      5.85943775	     -7.85503893	     25.81286217	      0.45051943	      0.78654220	     -8.55749219	     -7.50631284	     -6.37827798	     -5.92882847	     -7.13579047	     51.38149997	      0.89677635	    -26.98775276	     -7.03402045	     -7.50631284	    -16.58341528	      4.58064099	     -1.33365270	     -3.75250810	     -5.86040462	    -30.92680281	     46.33268399	    105.81827483	     15.95151913	     -6.48887322	    -19.15096359	     47.60412983	     88.92468291
      0.09000000	      3.61171862	      5.86260107	     89.79791160	     -0.22683598	      0.94284021	      0.96172259	     15.73186578	      6.31334727	     -8.08432086	     25.28576033	      0.44131977	      1.52429100	     -8.18818296	     -7.50625674	     -4.89571987	     -6.77484979	     -6.96053558	     54.08198895	      0.94390877	    -29.97815408	     -9.02544457	     -7.50625674	    -16.85817822	      5.01611077	     -1.11790607	     -3.47981983	     -5.87881150	    -30.92849235	     46.27717952	    106.43857006	     15.49449225	     -6.24763166	    -19.39877498	     47.00895202	     89.27589563
      0.10000000	      3.72975219	      5.90559561	     90.08358920	     -0.22636900	      0.94495065	      0.94977753	     14.58624419	      6.42132133	     -8.51887999	     24.77197489	      0.43235252	      2.25014218	     -7.58537456	     -7.50614373	     -3.06631364	     -7.23445446	     -6.47187153	     56.55524447	      0.98707523	    -31.51891883	    -11.76785587	     -7.50614373	    -16.95982475	      5.19373638	     -1.00326712	     -3.13478435	     -5.87880269	    -30.91879944	     46.08248200	    106.78313902	     15.31738341	     -5.74756725	    -20.15503257	     46.06364521	     89.44231864
      0.11000000	      3.56983322	      5.59003842	     90.37216865	     -0.22632320	      0.94661805	      0.93852225	     14.01361511	      6.15015649	     -9.05734802	     24.59350259	      0.42923759	      3.03747557	     -6.76356443	     -7.50572906	     -0.77651119	     -7.25051754	     -5.95823897	     58.86611937	      1.02740760	    -31.07928535	    -14.43414716	     -7.50572906	    -16.70318872	      5.12316526	     -1.08693574	     -2.66068461	     -5.86788657	    -30.88145235	     45.85287429	    106.73831724	     14.85758968	     -5.36850424	    -20.97881446	     45.30580861	     89.54052868
      0.12000000	      3.46757666	      5.49715680	     90.49228784	     -0.22587248	      0.94881433	      0.92733049	     12.99072233	      6.09695514	     -9.20736953	     23.95881963	      0.41816029	      3.65911253	     -6.33673087	     -7.50553299	      1.15988814	     -7.29287062	     -5.75005864	     60.74330066	      1.06017060	    -28.15506320	    -15.71729330	     -7.50553299	    -16.79495502	      5.02921602	     -0.85430693	     -2.25501631	     -5.89243507	    -30.70552876	     45.82428390	    106.19809804	     14.49645258	     -5.22653420	    -21.01133033	     44.72323093	     89.22792200
      0.13000000	      3.51489656	      5.10252734	     90.94889566	     -0.22564311	      0.95052130	      0.91631223	     12.26504151	      6.12660466	     -9.78238281	     23.17363257	      0.40445619	      4.06792586	     -5.54895189	     -7.50524640	      3.61631312	     -7.47016669	     -5.20094961	     62.53244490	      1.09139705	    -24.49035114	    -16.59741545	     -7.50524640	    -16.44756689	      5.14289139	     -0.93662104	     -1.92720571	     -5.86973163	    -30.59051508	     45.80104988	    105.83359990	     14.22150583	     -4.93340557	    -21.52393950	     43.67335161	     88.99212437
      0.14000000	      3.57636075	      4.83776293	     91.13921208	     -0.22494793	      0.95256201	      0.90547314	     11.42026459	      6.22522684	    -10.22984583	     22.39589734	      0.39088215	      4.38231449	     -4.83068292	     -7.50510369	      5.83434358	     -7.59313993	     -4.79080953	     63.79828830	      1.11349019	    -21.69265399	    -18.37987626	     -7.50510369	    -16.32632136	      5.18922007	     -0.76102159	     -1.51563665	     -5.81845884	    -30.57686876	     45.82770319	    105.82979729	     13.79695331	     -4.79753584	    -21.76865589	     42.96179835	     88.97358107
      0.15000000	      3.17695663	      4.67431339	     91.28047122	     -0.22486025	      0.95470640	      0.89435870	     10.46567195	      5.94102526	     -9.82697428	     21.70476331	      0.37881958	      4.85718833	     -4.73658242	     -7.50503297	      7.74983491	     -7.00441223	     -4.37877871	     64.39865303	      1.12396853	    -19.22277536	    -20.08961608	     -7.50503297	    -16.27067399	      4.78338289	     -0.69616288	     -1.17660396	     -5.78806307	    -30.49171982	     46.00482463	    105.80086402	     13.27596063	     -4.70643703	    -21.91912812	     42.33285388	     88.91320087
      0.16000000	      3.02874895	      4.54422212	     91.44012980	     -0.22357585	      0.95680129	      0.88327341	      9.46916336	      5.95429256	     -9.76308949	     20.93222669	      0.36533628	      5.19413876	     -4.54073790	     -7.50502667	      9.56071359	     -6.91268120	     -4.15603763	     64.61063630	      1.12766834	    -17.00809051	    -21.89232962	     -7.50502667	    -16.22484871	      4.46437218	     -0.59605103	     -0.83574991	     -5.57000961	    -30.35924306	     46.13206082	    106.02587233	     12.82578870	     -4.82701684	    -22.09060933	     41.68627351	     88.99069343
      0.17000000	      2.89499955	      4.33507195	     91.48695188	     -0.22286896	      0.95885981	      0.87210221	      8.53820898	      5.94911168	     -9.62297878	     20.13087016	      0.35134997	      5.37452553	     -4.28996451	     -7.50503986	     11.33410760	     -6.70877866	     -4.03969577	     64.47114420	      1.12523374	    -14.50102026	    -23.96316769	     -7.50503986	    -16.08593421	      4.30815491	     -0.50511353	     -0.43724444	     -5.48860492	    -30.29576650	     46.29880291	    106.34298539	     12.19293538	     -4.86471741	    -22.25632574	     40.97498249	     89.11988248
      0.18000000	      2.68669515	      3.80539323	     91.47926812	     -0.22228750	      0.95991832	      0.86100184	      8.18590081	      5.81293536	     -9.51309215	     19.76989796	      0.34504981	      5.83586743	     -4.05405714	     -7.50491579	     13.41810960	     -6.42063974	     -4.06792649	     64.15465464	      1.11970995	    -11.45964713	    -25.50170222	     -7.50491579	    -15.56609753	      4.07121797	     -0.34992822	     -0.24189168	     -5.46112452	    -30.19712945	     46.72148775	    106.26800989	     11.47411077	     -4.75109615	    -22.71877494	     40.43863535	     89.04184161
